HIERARCHY
ROOT Hips
{
 OFFSET 0.000000 0.000000 0.000000
 CHANNELS 6 Xposition Yposition Zposition Yrotation Xrotation Zrotation
 JOINT Chest
 {
  OFFSET 0.000000 10.080317 -0.001081
  CHANNELS 3 Yrotation Xrotation Zrotation
  JOINT Chest2
  {
   OFFSET 0.000000 11.096852 0.001963
   CHANNELS 3 Yrotation Xrotation Zrotation
   JOINT Chest3
   {
    OFFSET 0.000000 10.026525 0.000000
    CHANNELS 3 Yrotation Xrotation Zrotation
    JOINT Chest4
    {
     OFFSET 0.000000 10.026525 0.000000
     CHANNELS 3 Yrotation Xrotation Zrotation
     JOINT Neck
     {
      OFFSET 0.000000 14.108171 0.000000
      CHANNELS 3 Yrotation Xrotation Zrotation
      JOINT Head
      {
       OFFSET 0.000000 9.333493 0.004668
       CHANNELS 3 Yrotation Xrotation Zrotation
       End Site
       {
        OFFSET 0.000000 17.851786 0.002438
       }
      }
     }
     JOINT RightCollar
     {
      OFFSET -3.071622 7.873185 0.000000
      CHANNELS 3 Yrotation Xrotation Zrotation
      JOINT RightShoulder
      {
       OFFSET -14.378659 0.000000 0.000000
       CHANNELS 3 Yrotation Xrotation Zrotation
       JOINT RightElbow
       {
        OFFSET -30.778728 0.000000 0.000000
        CHANNELS 3 Yrotation Xrotation Zrotation
        JOINT RightWrist
        {
         OFFSET -25.164217 0.000000 0.000000
         CHANNELS 3 Yrotation Xrotation Zrotation
         End Site
         {
          OFFSET -18.796788 0.000000 0.000000
         }
        }
       }
      }
     }
     JOINT LeftCollar
     {
      OFFSET 3.071622 7.873185 0.000000
      CHANNELS 3 Yrotation Xrotation Zrotation
      JOINT LeftShoulder
      {
       OFFSET 14.378659 0.000000 0.000000
       CHANNELS 3 Yrotation Xrotation Zrotation
       JOINT LeftElbow
       {
        OFFSET 30.778728 0.000000 0.000000
        CHANNELS 3 Yrotation Xrotation Zrotation
        JOINT LeftWrist
        {
         OFFSET 25.164217 0.000000 0.000000
         CHANNELS 3 Yrotation Xrotation Zrotation
         End Site
         {
          OFFSET 18.796788 0.000000 0.000000
         }
        }
       }
      }
     }
    }
   }
  }
 }
 JOINT RightHip
 {
  OFFSET -8.194923 0.005295 0.000540
  CHANNELS 3 Yrotation Xrotation Zrotation
  JOINT RightKnee
  {
   OFFSET 0.000000 -42.473320 -0.000511
   CHANNELS 3 Yrotation Xrotation Zrotation
   JOINT RightAnkle
   {
    OFFSET 0.000000 -41.474259 -0.000865
    CHANNELS 3 Yrotation Xrotation Zrotation
    JOINT RightToe
    {
     OFFSET 0.000000 -7.354994 16.712725
     CHANNELS 3 Yrotation Xrotation Zrotation
     End Site
     {
      OFFSET 0.000000 -1.553903 6.764158
     }
    }
   }
  }
 }
 JOINT LeftHip
 {
  OFFSET 8.194923 0.005295 0.000540
  CHANNELS 3 Yrotation Xrotation Zrotation
  JOINT LeftKnee
  {
   OFFSET 0.000000 -42.473320 -0.000511
   CHANNELS 3 Yrotation Xrotation Zrotation
   JOINT LeftAnkle
   {
    OFFSET 0.000000 -41.474259 -0.000865
    CHANNELS 3 Yrotation Xrotation Zrotation
    JOINT LeftToe
    {
     OFFSET 0.000000 -7.354994 16.712725
     CHANNELS 3 Yrotation Xrotation Zrotation
     End Site
     {
      OFFSET 0.000000 -1.553903 6.764158
     }
    }
   }
  }
 }
}
MOTION
Frames: 9
Frame Time: 0.016667
-33.647498 95.233323 141.375222 -81.890788 6.148197 36.152727 13.201861 1.246654 -8.738871 5.829038 0.324875 -4.054328 5.829038 0.324875 -4.054328 4.374150 0.205017 -3.044165 9.003186 22.042213 -2.487861 16.950666 5.554779 -6.939175 10.021900 -14.654871 8.313536 29.619940 -34.567169 37.839203 108.952037 -14.725775 26.391517 0.795671 2.823723 -5.872698 -7.785900 -8.032973 -1.859021 15.539366 -46.905191 -37.995004 -95.144156 -8.617249 -33.679379 -2.429752 9.922263 19.829403 -23.361521 -35.078124 -22.205625 -13.289111 24.217510 -6.510949 -22.638409 -16.570857 -3.390394 0.041968 0.739489 0.984672 -1.434074 -34.149662 31.727530 -5.119873 60.696097 -24.628135 -1.697081 -1.372466 3.719137 1.408727 -2.865223 6.413793
-34.184345 95.124991 141.114961 -81.627635 5.141272 34.813873 13.485181 1.618318 -8.584514 5.859015 0.443767 -3.990766 5.859015 0.443767 -3.990766 4.397359 0.294611 -2.997640 8.823294 21.934654 -2.279307 16.579507 5.299956 -6.532138 9.823156 -14.547231 8.315044 29.526578 -34.819564 37.983156 109.196178 -14.701521 26.040581 0.978881 2.776371 -6.096454 -8.204721 -8.090808 -2.118784 15.262734 -48.197589 -38.048205 -95.704220 -9.749775 -33.522419 -2.511037 9.994620 19.930775 -23.063966 -32.425795 -21.814664 -14.536904 23.577268 -6.434696 -23.164312 -16.776507 -3.348340 0.056260 0.730700 0.939621 0.524678 -33.777632 29.042319 -3.742866 61.172800 -24.432649 -2.678425 -0.597746 1.847105 1.614582 -3.672605 7.388013
-34.690172 95.022423 140.920998 -81.033078 4.079825 33.508237 13.392865 1.756340 -8.393357 5.863716 0.564693 -3.903424 5.863716 0.564693 -3.903424 4.401571 0.386127 -2.933283 8.691230 21.865229 -2.070210 16.290317 5.123090 -6.130751 9.649618 -14.344463 8.292983 29.474441 -35.005601 38.023735 109.375089 -14.714641 25.770245 1.172344 2.728603 -6.337823 -8.501802 -8.051934 -2.367050 15.061121 -49.389690 -38.275692 -96.092925 -10.646018 -33.471579 -2.575852 10.038470 20.043635 -22.908625 -29.894354 -21.464516 -15.871607 23.000996 -6.293515 -23.644314 -16.992439 -3.250648 -0.002366 0.740922 0.851722 1.703234 -32.910830 26.607326 -1.294518 61.078073 -23.415748 -4.210280 0.309815 -0.545046 1.842699 -4.267408 8.477328
-35.209592 94.923216 140.801686 -80.622395 2.965528 32.281188 13.424320 2.025423 -8.195106 5.857719 0.681169 -3.803562 5.857719 0.681169 -3.803562 4.397678 0.474492 -2.859478 8.576806 21.821423 -1.829309 16.021495 4.992316 -5.672984 9.530037 -14.102990 8.247108 29.285429 -35.138891 38.036868 109.477557 -14.792765 25.583089 1.298655 2.697172 -6.486702 -8.873721 -8.003997 -2.629934 14.729504 -50.307496 -38.393992 -96.261420 -11.432342 -33.423504 -2.592209 10.043018 20.103148 -22.708695 -27.345434 -21.129488 -16.987167 22.388884 -6.157817 -24.193745 -17.183234 -3.154731 -0.006751 0.784448 0.789192 4.002927 -31.743837 23.491768 0.499312 60.593107 -22.122380 -5.500510 0.668578 -2.895909 1.778747 -4.404188 9.435984
-35.735891 94.835415 140.728923 -79.953596 1.807730 31.084400 13.198537 2.202996 -7.980427 5.835418 0.798005 -3.701301 5.835418 0.798005 -3.701301 4.381516 0.563247 -2.783852 8.460584 21.796846 -1.580017 15.745045 4.897154 -5.196807 9.348237 -13.937852 8.192357 28.979210 -35.209439 38.095984 109.505957 -14.853819 25.501491 1.437186 2.665595 -6.615736 -9.238963 -7.964737 -2.791519 14.266184 -50.972777 -38.531907 -96.287969 -12.059404 -33.325252 -2.536809 10.029710 20.071461 -22.927223 -24.926161 -20.726316 -18.049448 21.751607 -5.975582 -24.599285 -17.360123 -3.014640 -0.020439 0.821976 0.699636 5.968421 -30.201303 20.404165 1.862644 59.466630 -20.922324 -6.701080 0.514993 -5.006705 1.741647 -4.007632 10.024223
-36.292767 94.722790 140.634244 -79.420443 0.715199 29.730640 13.074557 2.388863 -7.583354 5.802497 0.874014 -3.580554 5.802497 0.874014 -3.580554 4.357086 0.621606 -2.693950 8.409442 21.836901 -1.316699 15.577075 4.928232 -4.704652 9.176098 -13.729107 8.119044 28.599439 -35.282148 38.245034 109.431597 -14.894082 25.529120 1.559775 2.609310 -6.713091 -9.491282 -7.891822 -2.909309 13.604087 -51.382895 -38.703810 -96.391935 -12.316878 -33.115873 -2.504990 10.025647 19.988097 -23.585986 -22.579171 -19.818884 -18.440278 21.018644 -5.861197 -25.160707 -17.514267 -2.878094 -0.011067 0.885815 0.642497 6.574446 -27.981846 18.209603 3.431084 57.995802 -20.037016 -7.388232 0.056322 -7.141406 1.627427 -3.539799 10.452948
-36.820686 94.606298 140.543591 -78.719206 -0.242866 28.442417 12.839076 2.438414 -7.273779 5.744742 0.920660 -3.444573 5.744742 0.920660 -3.444573 4.313815 0.658209 -2.592301 8.385037 21.883094 -1.085970 15.466051 4.979132 -4.277592 8.950420 -13.593135 8.012566 28.172356 -35.251669 38.447533 109.358853 -14.917801 25.586505 1.640272 2.558038 -6.777779 -9.686734 -7.869699 -3.053908 12.857760 -51.690846 -38.732296 -96.586408 -12.382620 -32.998991 -2.554533 10.112016 19.872477 -23.935956 -20.398815 -18.962829 -18.912668 20.378742 -5.810985 -25.939782 -17.562875 -2.659612 0.031463 0.859772 0.579734 7.474394 -26.081714 15.634156 4.111292 56.281339 -18.794135 -8.077577 -0.500673 -9.123313 1.584247 -3.042214 10.646580
-37.343089 94.483712 140.475089 -77.981340 -1.153944 27.166102 12.638442 2.448562 -6.972631 5.670948 0.946332 -3.290959 5.670948 0.946332 -3.290959 4.258356 0.679304 -2.477198 8.370277 21.950871 -0.860969 15.372716 5.072453 -3.861013 8.679447 -13.377429 7.920281 27.711979 -35.232449 38.611956 109.284717 -15.014624 25.691596 1.723247 2.556067 -6.821004 -9.936053 -7.718162 -3.206392 12.162134 -52.033925 -38.716888 -96.782628 -12.395398 -32.998493 -2.606536 10.189994 19.817218 -24.323457 -18.343892 -18.150038 -19.412874 19.823444 -5.713699 -26.569788 -17.640303 -2.390140 0.045604 0.834133 0.472647 7.983524 -23.946576 13.372200 4.447715 54.221530 -17.828219 -8.518256 -0.693818 -10.751300 1.638769 -2.852571 10.707624
-37.890843 94.344892 140.359004 -77.282801 -2.008028 25.772105 12.438658 2.445128 -6.543374 5.584594 0.960996 -3.117049 5.584594 0.960996 -3.117049 4.193377 0.692353 -2.346747 8.363986 22.000040 -0.667824 15.304943 5.137096 -3.506280 8.443258 -13.099436 7.845061 27.338896 -35.230162 38.634032 109.160194 -15.240562 25.787257 1.775361 2.531845 -6.843408 -10.109803 -7.546108 -3.365390 11.452081 -52.345354 -38.677142 -96.838367 -12.463845 -33.100756 -2.665206 10.219400 19.805210 -25.100154 -16.329858 -17.106384 -19.694330 19.185916 -5.552022 -26.884761 -17.734421 -2.210142 0.044821 0.794130 0.372646 7.878640 -21.416304 11.797730 4.984503 51.672174 -17.102689 -8.859313 -0.676384 -12.315169 1.727970 -2.670339 10.751929
